<?xml version="1.0" standalone="no"?>
<!DOCTYPE svg PUBLIC "-//W3C//DTD SVG 20010904//EN"
 "http://www.w3.org/TR/2001/REC-SVG-20010904/DTD/svg10.dtd">
<svg version="1.0" xmlns="http://www.w3.org/2000/svg"
 width="70.000000pt" height="70.000000pt" viewBox="0 0 70.000000 70.000000"
 preserveAspectRatio="xMidYMid meet">
<metadata>
Created by potrace 1.11, written by Peter Selinger 2001-2013
</metadata>
<g transform="translate(0.000000,70.000000) scale(0.100000,-0.100000)"
fill="#000000" stroke="none">
<path d="M99 598 c-8 -18 -14 -35 -15 -38 0 -3 -5 -16 -11 -30 -6 -14 -19 -45
-28 -70 -9 -25 -24 -60 -32 -78 -12 -28 -12 -36 0 -65 16 -34 81 -199 83 -207
0 -3 6 -16 12 -30 7 -17 11 -19 11 -8 1 9 5 18 9 20 4 2 15 21 23 43 12 32 20
40 41 41 42 2 63 13 50 26 -15 15 -16 32 -2 23 7 -4 7 2 1 18 -6 14 -8 27 -6
29 6 6 12 88 6 88 -8 0 -5 126 3 139 9 13 -11 24 -48 25 -27 1 -32 6 -51 54
-11 28 -23 52 -26 52 -4 0 -13 -15 -20 -32z"/>
<path d="M385 575 c-16 -7 -50 -20 -75 -29 l-45 -16 1 -67 c3 -109 2 -105 23
-94 10 6 21 7 25 4 3 -3 6 -1 6 6 0 7 4 10 8 7 5 -3 30 1 56 9 46 14 49 14 67
-8 23 -28 23 -29 -1 -60 -18 -23 -25 -25 -47 -16 -14 5 -28 7 -31 4 -3 -2 -10
-1 -16 4 -6 5 -28 11 -48 15 -42 8 -40 11 -42 -69 -2 -79 3 -85 87 -115 l76
-28 27 36 c64 87 161 168 224 187 23 7 23 8 5 15 -11 4 -24 8 -28 8 -5 0 -15
9 -23 19 -7 10 -14 14 -14 10 0 -17 -104 79 -145 133 -23 30 -45 56 -51 56 -5
1 -22 -4 -39 -11z"/>
</g>
</svg>
